<mxfile host="app.diagrams.net" modified="2023-11-10T14:40:21.695Z" agent="Mozilla/5.0 (Windows NT 10.0; Win64; x64) AppleWebKit/537.36 (KHTML, like Gecko) Chrome/119.0.0.0 Safari/537.36" etag="Y4GOzpfU1y9HG3OWhE8F" version="22.1.0" type="device">
  <diagram name="Página-1" id="GROtA69f7PvtAqmSkzAN">
    <mxGraphModel dx="1985" dy="1614" grid="1" gridSize="10" guides="1" tooltips="1" connect="1" arrows="1" fold="1" page="1" pageScale="1" pageWidth="827" pageHeight="1169" math="0" shadow="0">
      <root>
        <mxCell id="0" />
        <mxCell id="1" parent="0" />
        <mxCell id="mGtWwvDgIcSNrl-Gn1ym-34" value="add(R:Registro)" style="html=1;verticalAlign=bottom;endArrow=block;curved=0;rounded=0;entryX=0;entryY=0;entryDx=0;entryDy=5;entryPerimeter=0;" edge="1" parent="1" source="qTSP23jpM8B3Yzu9Cy1U-2" target="mGtWwvDgIcSNrl-Gn1ym-35">
          <mxGeometry x="-0.0047" y="5" relative="1" as="geometry">
            <mxPoint x="209.99999999999955" y="-360" as="sourcePoint" />
            <mxPoint x="1" as="offset" />
            <mxPoint x="362.3" y="-353" as="targetPoint" />
          </mxGeometry>
        </mxCell>
        <mxCell id="mGtWwvDgIcSNrl-Gn1ym-36" value="&amp;lt;&amp;lt;return:null&amp;gt;&amp;gt;" style="html=1;verticalAlign=bottom;endArrow=open;dashed=1;endSize=8;curved=0;rounded=0;exitX=0;exitY=1;exitDx=0;exitDy=-5;entryX=1.166;entryY=0.162;entryDx=0;entryDy=0;entryPerimeter=0;" edge="1" parent="1" target="qTSP23jpM8B3Yzu9Cy1U-3">
          <mxGeometry relative="1" as="geometry">
            <mxPoint x="210" y="-337" as="targetPoint" />
            <mxPoint x="362" y="-337" as="sourcePoint" />
          </mxGeometry>
        </mxCell>
        <mxCell id="qTSP23jpM8B3Yzu9Cy1U-1" value="cam:Cámara" style="shape=umlLifeline;perimeter=lifelinePerimeter;whiteSpace=wrap;html=1;container=1;dropTarget=0;collapsible=0;recursiveResize=0;outlineConnect=0;portConstraint=eastwest;newEdgeStyle={&quot;curved&quot;:0,&quot;rounded&quot;:0};" parent="1" vertex="1">
          <mxGeometry x="-780" y="-530" width="100" height="920" as="geometry" />
        </mxCell>
        <mxCell id="qTSP23jpM8B3Yzu9Cy1U-2" value="CP:Controlador" style="shape=umlLifeline;perimeter=lifelinePerimeter;whiteSpace=wrap;html=1;container=0;dropTarget=0;collapsible=0;recursiveResize=0;outlineConnect=0;portConstraint=eastwest;newEdgeStyle={&quot;curved&quot;:0,&quot;rounded&quot;:0};movable=1;resizable=1;rotatable=1;deletable=1;editable=1;locked=0;connectable=1;" parent="1" vertex="1">
          <mxGeometry x="-464" y="-530" width="100" height="920" as="geometry" />
        </mxCell>
        <mxCell id="qTSP23jpM8B3Yzu9Cy1U-3" value="" style="html=1;points=[[0,0,0,0,5],[0,1,0,0,-5],[1,0,0,0,5],[1,1,0,0,-5]];perimeter=orthogonalPerimeter;outlineConnect=0;targetShapes=umlLifeline;portConstraint=eastwest;newEdgeStyle={&quot;curved&quot;:0,&quot;rounded&quot;:0};" parent="qTSP23jpM8B3Yzu9Cy1U-2" vertex="1">
          <mxGeometry x="46" y="65" width="10" height="835" as="geometry" />
        </mxCell>
        <mxCell id="qTSP23jpM8B3Yzu9Cy1U-4" value="RegistrarDatos(Fecha, Hora, IDcámara, Patente, Velocidad)" style="html=1;verticalAlign=bottom;endArrow=block;curved=0;rounded=0;entryX=0;entryY=0;entryDx=0;entryDy=5;" parent="1" source="qTSP23jpM8B3Yzu9Cy1U-1" target="qTSP23jpM8B3Yzu9Cy1U-3" edge="1">
          <mxGeometry x="-0.0047" y="5" relative="1" as="geometry">
            <mxPoint x="-590" y="-1065" as="sourcePoint" />
            <mxPoint x="1" as="offset" />
          </mxGeometry>
        </mxCell>
        <mxCell id="qTSP23jpM8B3Yzu9Cy1U-5" value="&amp;lt;&amp;lt;return:null&amp;gt;&amp;gt;" style="html=1;verticalAlign=bottom;endArrow=open;dashed=1;endSize=8;curved=0;rounded=0;exitX=0;exitY=1;exitDx=0;exitDy=-5;exitPerimeter=0;" parent="1" source="qTSP23jpM8B3Yzu9Cy1U-3" edge="1">
          <mxGeometry x="-0.0016" relative="1" as="geometry">
            <mxPoint x="-730.7499999999998" y="364.99999999999727" as="targetPoint" />
            <mxPoint as="offset" />
            <mxPoint x="-417" y="364.99999999999727" as="sourcePoint" />
          </mxGeometry>
        </mxCell>
        <mxCell id="qTSP23jpM8B3Yzu9Cy1U-6" value="APIbd:APIBD" style="shape=umlLifeline;perimeter=lifelinePerimeter;whiteSpace=wrap;html=1;container=1;dropTarget=0;collapsible=0;recursiveResize=0;outlineConnect=0;portConstraint=eastwest;newEdgeStyle={&quot;curved&quot;:0,&quot;rounded&quot;:0};movable=1;resizable=1;rotatable=1;deletable=1;editable=1;locked=0;connectable=1;" parent="1" vertex="1">
          <mxGeometry x="640" y="-480" width="100" height="870" as="geometry" />
        </mxCell>
        <mxCell id="0-rFdvbkv2ZZ_MwjHsfb-18" value="Alt" style="shape=umlFrame;whiteSpace=wrap;html=1;pointerEvents=0;" parent="1" vertex="1">
          <mxGeometry x="-680" y="-320" width="1730" height="670" as="geometry" />
        </mxCell>
        <mxCell id="0-rFdvbkv2ZZ_MwjHsfb-19" value="APIcorreo:&lt;br&gt;APICORREO" style="shape=umlLifeline;perimeter=lifelinePerimeter;whiteSpace=wrap;html=1;container=0;dropTarget=0;collapsible=0;recursiveResize=0;outlineConnect=0;portConstraint=eastwest;newEdgeStyle={&quot;curved&quot;:0,&quot;rounded&quot;:0};movable=1;resizable=1;rotatable=1;deletable=1;editable=1;locked=0;connectable=1;" parent="1" vertex="1">
          <mxGeometry x="780" y="-480" width="100" height="860" as="geometry" />
        </mxCell>
        <mxCell id="mGtWwvDgIcSNrl-Gn1ym-17" value="" style="html=1;points=[[0,0,0,0,5],[0,1,0,0,-5],[1,0,0,0,5],[1,1,0,0,-5]];perimeter=orthogonalPerimeter;outlineConnect=0;targetShapes=umlLifeline;portConstraint=eastwest;newEdgeStyle={&quot;curved&quot;:0,&quot;rounded&quot;:0};" vertex="1" parent="0-rFdvbkv2ZZ_MwjHsfb-19">
          <mxGeometry x="46" y="360" width="10" height="40" as="geometry" />
        </mxCell>
        <mxCell id="mGtWwvDgIcSNrl-Gn1ym-20" value="" style="html=1;points=[[0,0,0,0,5],[0,1,0,0,-5],[1,0,0,0,5],[1,1,0,0,-5]];perimeter=orthogonalPerimeter;outlineConnect=0;targetShapes=umlLifeline;portConstraint=eastwest;newEdgeStyle={&quot;curved&quot;:0,&quot;rounded&quot;:0};" vertex="1" parent="0-rFdvbkv2ZZ_MwjHsfb-19">
          <mxGeometry x="46" y="600" width="10" height="30" as="geometry" />
        </mxCell>
        <mxCell id="mGtWwvDgIcSNrl-Gn1ym-39" value="" style="html=1;points=[[0,0,0,0,5],[0,1,0,0,-5],[1,0,0,0,5],[1,1,0,0,-5]];perimeter=orthogonalPerimeter;outlineConnect=0;targetShapes=umlLifeline;portConstraint=eastwest;newEdgeStyle={&quot;curved&quot;:0,&quot;rounded&quot;:0};" vertex="1" parent="0-rFdvbkv2ZZ_MwjHsfb-19">
          <mxGeometry x="46" y="650" width="10" height="30" as="geometry" />
        </mxCell>
        <mxCell id="0-rFdvbkv2ZZ_MwjHsfb-20" value="APIimpresora:&lt;br&gt;APIIMPRESORA" style="shape=umlLifeline;perimeter=lifelinePerimeter;whiteSpace=wrap;html=1;container=1;dropTarget=0;collapsible=0;recursiveResize=0;outlineConnect=0;portConstraint=eastwest;newEdgeStyle={&quot;curved&quot;:0,&quot;rounded&quot;:0};" parent="1" vertex="1">
          <mxGeometry x="910" y="-480" width="100" height="860" as="geometry" />
        </mxCell>
        <mxCell id="0-rFdvbkv2ZZ_MwjHsfb-22" value="" style="endArrow=none;html=1;rounded=0;entryX=1;entryY=0.433;entryDx=0;entryDy=0;entryPerimeter=0;exitX=0;exitY=0.432;exitDx=0;exitDy=0;exitPerimeter=0;" parent="1" source="0-rFdvbkv2ZZ_MwjHsfb-18" target="0-rFdvbkv2ZZ_MwjHsfb-18" edge="1">
          <mxGeometry width="50" height="50" relative="1" as="geometry">
            <mxPoint x="670" y="60" as="sourcePoint" />
            <mxPoint x="720" y="10" as="targetPoint" />
          </mxGeometry>
        </mxCell>
        <mxCell id="0-rFdvbkv2ZZ_MwjHsfb-23" value="[100km/h&amp;gt;velocidad&amp;gt;70km/h]" style="text;html=1;strokeColor=none;fillColor=none;align=center;verticalAlign=middle;whiteSpace=wrap;rounded=0;" parent="1" vertex="1">
          <mxGeometry x="-660" y="-320" width="265" height="30" as="geometry" />
        </mxCell>
        <mxCell id="0-rFdvbkv2ZZ_MwjHsfb-24" value="[Velocidad&amp;gt;=100km/h]" style="text;html=1;strokeColor=none;fillColor=none;align=center;verticalAlign=middle;whiteSpace=wrap;rounded=0;" parent="1" vertex="1">
          <mxGeometry x="-740" y="-30" width="265" height="30" as="geometry" />
        </mxCell>
        <mxCell id="0-rFdvbkv2ZZ_MwjHsfb-31" value="" style="html=1;points=[[0,0,0,0,5],[0,1,0,0,-5],[1,0,0,0,5],[1,1,0,0,-5]];perimeter=orthogonalPerimeter;outlineConnect=0;targetShapes=umlLifeline;portConstraint=eastwest;newEdgeStyle={&quot;curved&quot;:0,&quot;rounded&quot;:0};" parent="1" vertex="1">
          <mxGeometry x="685" y="-300" width="10" height="60" as="geometry" />
        </mxCell>
        <mxCell id="0-rFdvbkv2ZZ_MwjHsfb-32" value="EnviarDatos(Fecha, Hora, IDcámara, Patente, Velocidad)" style="html=1;verticalAlign=bottom;endArrow=block;curved=0;rounded=0;entryX=0;entryY=0;entryDx=0;entryDy=5;" parent="1" source="qTSP23jpM8B3Yzu9Cy1U-3" target="0-rFdvbkv2ZZ_MwjHsfb-31" edge="1">
          <mxGeometry relative="1" as="geometry">
            <mxPoint x="615" y="-295" as="sourcePoint" />
          </mxGeometry>
        </mxCell>
        <mxCell id="0-rFdvbkv2ZZ_MwjHsfb-33" value="&amp;lt;&amp;lt;return:null&amp;gt;&amp;gt;" style="html=1;verticalAlign=bottom;endArrow=open;dashed=1;endSize=8;curved=0;rounded=0;exitX=0;exitY=1;exitDx=0;exitDy=-5;" parent="1" source="0-rFdvbkv2ZZ_MwjHsfb-31" target="qTSP23jpM8B3Yzu9Cy1U-3" edge="1">
          <mxGeometry relative="1" as="geometry">
            <mxPoint x="-400" y="-225" as="targetPoint" />
          </mxGeometry>
        </mxCell>
        <mxCell id="0-rFdvbkv2ZZ_MwjHsfb-35" value="EnviarDatos(Fecha, Hora, IDcámara, Patente, Velocidad)" style="html=1;verticalAlign=bottom;endArrow=block;curved=0;rounded=0;entryX=0;entryY=0;entryDx=0;entryDy=5;" parent="1" source="qTSP23jpM8B3Yzu9Cy1U-3" target="0-rFdvbkv2ZZ_MwjHsfb-34" edge="1">
          <mxGeometry relative="1" as="geometry">
            <mxPoint x="615" y="-175" as="sourcePoint" />
          </mxGeometry>
        </mxCell>
        <mxCell id="0-rFdvbkv2ZZ_MwjHsfb-36" value="&amp;lt;&amp;lt;Datos:String&amp;gt;&amp;gt;" style="html=1;verticalAlign=bottom;endArrow=open;dashed=1;endSize=8;curved=0;rounded=0;exitX=0;exitY=1;exitDx=0;exitDy=-5;" parent="1" source="0-rFdvbkv2ZZ_MwjHsfb-34" target="qTSP23jpM8B3Yzu9Cy1U-3" edge="1">
          <mxGeometry relative="1" as="geometry">
            <mxPoint x="-410" y="-105" as="targetPoint" />
          </mxGeometry>
        </mxCell>
        <mxCell id="0-rFdvbkv2ZZ_MwjHsfb-54" value="" style="html=1;points=[[0,0,0,0,5],[0,1,0,0,-5],[1,0,0,0,5],[1,1,0,0,-5]];perimeter=orthogonalPerimeter;outlineConnect=0;targetShapes=umlLifeline;portConstraint=eastwest;newEdgeStyle={&quot;curved&quot;:0,&quot;rounded&quot;:0};" parent="1" vertex="1">
          <mxGeometry x="685" y="-10" width="10" height="80" as="geometry" />
        </mxCell>
        <mxCell id="0-rFdvbkv2ZZ_MwjHsfb-55" value="EnviarDatos(Fecha, Hora, IDcámara, Patente, Velocidad)" style="html=1;verticalAlign=bottom;endArrow=block;curved=0;rounded=0;entryX=0;entryY=0;entryDx=0;entryDy=5;" parent="1" source="qTSP23jpM8B3Yzu9Cy1U-3" target="0-rFdvbkv2ZZ_MwjHsfb-54" edge="1">
          <mxGeometry x="0.001" relative="1" as="geometry">
            <mxPoint x="-400" y="-5" as="sourcePoint" />
            <mxPoint as="offset" />
          </mxGeometry>
        </mxCell>
        <mxCell id="0-rFdvbkv2ZZ_MwjHsfb-56" value="&amp;lt;&amp;lt;return:null&amp;gt;&amp;gt;" style="html=1;verticalAlign=bottom;endArrow=open;dashed=1;endSize=8;curved=0;rounded=0;exitX=0;exitY=1;exitDx=0;exitDy=-5;" parent="1" source="0-rFdvbkv2ZZ_MwjHsfb-54" target="qTSP23jpM8B3Yzu9Cy1U-3" edge="1">
          <mxGeometry relative="1" as="geometry">
            <mxPoint x="615" y="65" as="targetPoint" />
          </mxGeometry>
        </mxCell>
        <mxCell id="0-rFdvbkv2ZZ_MwjHsfb-58" value="EnviarDatos(Fecha, Hora, IDcámara, Patente, Velocidad)" style="html=1;verticalAlign=bottom;endArrow=block;curved=0;rounded=0;entryX=0;entryY=0;entryDx=0;entryDy=5;" parent="1" source="qTSP23jpM8B3Yzu9Cy1U-3" target="0-rFdvbkv2ZZ_MwjHsfb-57" edge="1">
          <mxGeometry relative="1" as="geometry">
            <mxPoint x="755" y="125" as="sourcePoint" />
          </mxGeometry>
        </mxCell>
        <mxCell id="0-rFdvbkv2ZZ_MwjHsfb-59" value="&amp;lt;&amp;lt;Datos:String&amp;gt;&amp;gt;" style="html=1;verticalAlign=bottom;endArrow=open;dashed=1;endSize=8;curved=0;rounded=0;exitX=0;exitY=1;exitDx=0;exitDy=-5;" parent="1" source="0-rFdvbkv2ZZ_MwjHsfb-57" target="qTSP23jpM8B3Yzu9Cy1U-3" edge="1">
          <mxGeometry relative="1" as="geometry">
            <mxPoint x="755" y="195" as="targetPoint" />
          </mxGeometry>
        </mxCell>
        <mxCell id="0-rFdvbkv2ZZ_MwjHsfb-60" value="Loop" style="shape=umlFrame;whiteSpace=wrap;html=1;pointerEvents=0;" parent="1" vertex="1">
          <mxGeometry x="-580" y="210" width="1590" height="130" as="geometry" />
        </mxCell>
        <mxCell id="0-rFdvbkv2ZZ_MwjHsfb-65" value="" style="html=1;points=[[0,0,0,0,5],[0,1,0,0,-5],[1,0,0,0,5],[1,1,0,0,-5]];perimeter=orthogonalPerimeter;outlineConnect=0;targetShapes=umlLifeline;portConstraint=eastwest;newEdgeStyle={&quot;curved&quot;:0,&quot;rounded&quot;:0};" parent="1" vertex="1">
          <mxGeometry x="955" y="240" width="10" height="80" as="geometry" />
        </mxCell>
        <mxCell id="0-rFdvbkv2ZZ_MwjHsfb-66" value="EnviarDatos(Fecha, Hora, IDcámara, Patente, Velocidad)" style="html=1;verticalAlign=bottom;endArrow=block;curved=0;rounded=0;entryX=0;entryY=0;entryDx=0;entryDy=5;" parent="1" source="qTSP23jpM8B3Yzu9Cy1U-3" target="0-rFdvbkv2ZZ_MwjHsfb-65" edge="1">
          <mxGeometry relative="1" as="geometry">
            <mxPoint x="885" y="245" as="sourcePoint" />
          </mxGeometry>
        </mxCell>
        <mxCell id="0-rFdvbkv2ZZ_MwjHsfb-67" value="&amp;lt;&amp;lt;return:null&amp;gt;&amp;gt;" style="html=1;verticalAlign=bottom;endArrow=open;dashed=1;endSize=8;curved=0;rounded=0;exitX=0;exitY=1;exitDx=0;exitDy=-5;" parent="1" source="0-rFdvbkv2ZZ_MwjHsfb-65" target="qTSP23jpM8B3Yzu9Cy1U-3" edge="1">
          <mxGeometry relative="1" as="geometry">
            <mxPoint x="900" y="315" as="targetPoint" />
          </mxGeometry>
        </mxCell>
        <mxCell id="0-rFdvbkv2ZZ_MwjHsfb-68" value="[Repetir 3 veces]" style="text;html=1;strokeColor=none;fillColor=none;align=center;verticalAlign=middle;whiteSpace=wrap;rounded=0;" parent="1" vertex="1">
          <mxGeometry x="-523" y="210" width="110" height="30" as="geometry" />
        </mxCell>
        <mxCell id="0-rFdvbkv2ZZ_MwjHsfb-34" value="" style="html=1;points=[[0,0,0,0,5],[0,1,0,0,-5],[1,0,0,0,5],[1,1,0,0,-5]];perimeter=orthogonalPerimeter;outlineConnect=0;targetShapes=umlLifeline;portConstraint=eastwest;newEdgeStyle={&quot;curved&quot;:0,&quot;rounded&quot;:0};" parent="1" vertex="1">
          <mxGeometry x="826" y="-190" width="10" height="40" as="geometry" />
        </mxCell>
        <mxCell id="0-rFdvbkv2ZZ_MwjHsfb-57" value="" style="html=1;points=[[0,0,0,0,5],[0,1,0,0,-5],[1,0,0,0,5],[1,1,0,0,-5]];perimeter=orthogonalPerimeter;outlineConnect=0;targetShapes=umlLifeline;portConstraint=eastwest;newEdgeStyle={&quot;curved&quot;:0,&quot;rounded&quot;:0};" parent="1" vertex="1">
          <mxGeometry x="825" y="120" width="10" height="30" as="geometry" />
        </mxCell>
        <mxCell id="iA0bfO9FTOAM0brtnCbu-1" value="Cámara" style="rounded=0;whiteSpace=wrap;html=1;" parent="1" vertex="1">
          <mxGeometry x="-637" y="600" width="120" height="60" as="geometry" />
        </mxCell>
        <mxCell id="iA0bfO9FTOAM0brtnCbu-3" value="Registro" style="rounded=0;whiteSpace=wrap;html=1;" parent="1" vertex="1">
          <mxGeometry x="-629.5" y="800" width="105" height="40" as="geometry" />
        </mxCell>
        <mxCell id="iA0bfO9FTOAM0brtnCbu-4" value="Tiene" style="rhombus;whiteSpace=wrap;html=1;" parent="1" vertex="1">
          <mxGeometry x="-622" y="690" width="90" height="70" as="geometry" />
        </mxCell>
        <mxCell id="iA0bfO9FTOAM0brtnCbu-7" value="" style="endArrow=none;html=1;rounded=0;entryX=0.5;entryY=1;entryDx=0;entryDy=0;" parent="1" source="iA0bfO9FTOAM0brtnCbu-4" target="iA0bfO9FTOAM0brtnCbu-1" edge="1">
          <mxGeometry width="50" height="50" relative="1" as="geometry">
            <mxPoint x="-307" y="710" as="sourcePoint" />
            <mxPoint x="-307" y="670" as="targetPoint" />
          </mxGeometry>
        </mxCell>
        <mxCell id="iA0bfO9FTOAM0brtnCbu-9" value="" style="endArrow=none;html=1;rounded=0;entryX=0.5;entryY=1;entryDx=0;entryDy=0;exitX=0.5;exitY=0;exitDx=0;exitDy=0;" parent="1" source="iA0bfO9FTOAM0brtnCbu-3" target="iA0bfO9FTOAM0brtnCbu-4" edge="1">
          <mxGeometry width="50" height="50" relative="1" as="geometry">
            <mxPoint x="-382" y="800" as="sourcePoint" />
            <mxPoint x="-307" y="760" as="targetPoint" />
            <Array as="points">
              <mxPoint x="-577" y="790" />
            </Array>
          </mxGeometry>
        </mxCell>
        <mxCell id="iA0bfO9FTOAM0brtnCbu-10" value="IDCámara" style="ellipse;whiteSpace=wrap;html=1;" parent="1" vertex="1">
          <mxGeometry x="-770" y="630" width="90" height="40" as="geometry" />
        </mxCell>
        <mxCell id="iA0bfO9FTOAM0brtnCbu-11" value="Descripción" style="ellipse;whiteSpace=wrap;html=1;" parent="1" vertex="1">
          <mxGeometry x="-757" y="570" width="90" height="40" as="geometry" />
        </mxCell>
        <mxCell id="iA0bfO9FTOAM0brtnCbu-13" value="Dirección IP" style="ellipse;whiteSpace=wrap;html=1;" parent="1" vertex="1">
          <mxGeometry x="-547" y="540" width="90" height="40" as="geometry" />
        </mxCell>
        <mxCell id="iA0bfO9FTOAM0brtnCbu-14" value="Modelo de Cámara" style="ellipse;whiteSpace=wrap;html=1;" parent="1" vertex="1">
          <mxGeometry x="-497" y="600" width="90" height="40" as="geometry" />
        </mxCell>
        <mxCell id="iA0bfO9FTOAM0brtnCbu-15" value="Hora" style="ellipse;whiteSpace=wrap;html=1;" parent="1" vertex="1">
          <mxGeometry x="-775" y="840" width="90" height="40" as="geometry" />
        </mxCell>
        <mxCell id="iA0bfO9FTOAM0brtnCbu-16" value="Fecha" style="ellipse;whiteSpace=wrap;html=1;" parent="1" vertex="1">
          <mxGeometry x="-622" y="900" width="90" height="40" as="geometry" />
        </mxCell>
        <mxCell id="iA0bfO9FTOAM0brtnCbu-17" value="Velocidad" style="ellipse;whiteSpace=wrap;html=1;" parent="1" vertex="1">
          <mxGeometry x="-730" y="890" width="90" height="40" as="geometry" />
        </mxCell>
        <mxCell id="iA0bfO9FTOAM0brtnCbu-18" value="" style="endArrow=none;html=1;rounded=0;exitX=1;exitY=0.5;exitDx=0;exitDy=0;entryX=0;entryY=0.75;entryDx=0;entryDy=0;" parent="1" source="iA0bfO9FTOAM0brtnCbu-10" target="iA0bfO9FTOAM0brtnCbu-1" edge="1">
          <mxGeometry width="50" height="50" relative="1" as="geometry">
            <mxPoint x="-637" y="640" as="sourcePoint" />
            <mxPoint x="-587" y="590" as="targetPoint" />
          </mxGeometry>
        </mxCell>
        <mxCell id="iA0bfO9FTOAM0brtnCbu-19" value="" style="endArrow=none;html=1;rounded=0;exitX=1;exitY=0.5;exitDx=0;exitDy=0;entryX=0;entryY=0.25;entryDx=0;entryDy=0;" parent="1" source="iA0bfO9FTOAM0brtnCbu-11" target="iA0bfO9FTOAM0brtnCbu-1" edge="1">
          <mxGeometry width="50" height="50" relative="1" as="geometry">
            <mxPoint x="-657" y="650" as="sourcePoint" />
            <mxPoint x="-627" y="640" as="targetPoint" />
          </mxGeometry>
        </mxCell>
        <mxCell id="iA0bfO9FTOAM0brtnCbu-20" value="" style="endArrow=none;html=1;rounded=0;exitX=0.5;exitY=1;exitDx=0;exitDy=0;entryX=0.25;entryY=0;entryDx=0;entryDy=0;" parent="1" source="mGtWwvDgIcSNrl-Gn1ym-2" target="iA0bfO9FTOAM0brtnCbu-1" edge="1">
          <mxGeometry width="50" height="50" relative="1" as="geometry">
            <mxPoint x="-612" y="580" as="sourcePoint" />
            <mxPoint x="-627" y="640" as="targetPoint" />
          </mxGeometry>
        </mxCell>
        <mxCell id="iA0bfO9FTOAM0brtnCbu-21" value="" style="endArrow=none;html=1;rounded=0;exitX=0.5;exitY=0;exitDx=0;exitDy=0;entryX=0;entryY=1;entryDx=0;entryDy=0;" parent="1" source="iA0bfO9FTOAM0brtnCbu-1" target="iA0bfO9FTOAM0brtnCbu-13" edge="1">
          <mxGeometry width="50" height="50" relative="1" as="geometry">
            <mxPoint x="-602" y="590" as="sourcePoint" />
            <mxPoint x="-567" y="610" as="targetPoint" />
          </mxGeometry>
        </mxCell>
        <mxCell id="iA0bfO9FTOAM0brtnCbu-22" value="" style="endArrow=none;html=1;rounded=0;exitX=1;exitY=0.5;exitDx=0;exitDy=0;entryX=0;entryY=0.5;entryDx=0;entryDy=0;" parent="1" source="iA0bfO9FTOAM0brtnCbu-1" target="iA0bfO9FTOAM0brtnCbu-14" edge="1">
          <mxGeometry width="50" height="50" relative="1" as="geometry">
            <mxPoint x="-582" y="640" as="sourcePoint" />
            <mxPoint x="-507" y="620" as="targetPoint" />
          </mxGeometry>
        </mxCell>
        <mxCell id="iA0bfO9FTOAM0brtnCbu-24" value="" style="endArrow=none;html=1;rounded=0;exitX=1;exitY=0;exitDx=0;exitDy=0;entryX=0;entryY=1;entryDx=0;entryDy=0;" parent="1" source="iA0bfO9FTOAM0brtnCbu-15" target="iA0bfO9FTOAM0brtnCbu-3" edge="1">
          <mxGeometry width="50" height="50" relative="1" as="geometry">
            <mxPoint x="-497" y="880" as="sourcePoint" />
            <mxPoint x="-467" y="920" as="targetPoint" />
          </mxGeometry>
        </mxCell>
        <mxCell id="iA0bfO9FTOAM0brtnCbu-25" value="" style="endArrow=none;html=1;rounded=0;exitX=1;exitY=0;exitDx=0;exitDy=0;entryX=0.25;entryY=1;entryDx=0;entryDy=0;" parent="1" source="iA0bfO9FTOAM0brtnCbu-17" target="iA0bfO9FTOAM0brtnCbu-3" edge="1">
          <mxGeometry width="50" height="50" relative="1" as="geometry">
            <mxPoint x="-542" y="840" as="sourcePoint" />
            <mxPoint x="-434" y="820" as="targetPoint" />
          </mxGeometry>
        </mxCell>
        <mxCell id="iA0bfO9FTOAM0brtnCbu-26" value="" style="endArrow=none;html=1;rounded=0;exitX=0.5;exitY=0;exitDx=0;exitDy=0;entryX=0.5;entryY=1;entryDx=0;entryDy=0;" parent="1" source="iA0bfO9FTOAM0brtnCbu-16" target="iA0bfO9FTOAM0brtnCbu-3" edge="1">
          <mxGeometry width="50" height="50" relative="1" as="geometry">
            <mxPoint x="-434" y="840" as="sourcePoint" />
            <mxPoint x="-434" y="820" as="targetPoint" />
          </mxGeometry>
        </mxCell>
        <mxCell id="iA0bfO9FTOAM0brtnCbu-27" value="1" style="text;html=1;strokeColor=none;fillColor=none;align=center;verticalAlign=middle;whiteSpace=wrap;rounded=0;" parent="1" vertex="1">
          <mxGeometry x="-622" y="660" width="60" height="30" as="geometry" />
        </mxCell>
        <mxCell id="iA0bfO9FTOAM0brtnCbu-28" value="0..N" style="text;html=1;strokeColor=none;fillColor=none;align=center;verticalAlign=middle;whiteSpace=wrap;rounded=0;" parent="1" vertex="1">
          <mxGeometry x="-627" y="770" width="60" height="30" as="geometry" />
        </mxCell>
        <mxCell id="iA0bfO9FTOAM0brtnCbu-37" value="Patente" style="ellipse;whiteSpace=wrap;html=1;fontStyle=1" parent="1" vertex="1">
          <mxGeometry x="-508" y="890" width="90" height="40" as="geometry" />
        </mxCell>
        <mxCell id="iA0bfO9FTOAM0brtnCbu-38" value="" style="endArrow=none;html=1;rounded=0;exitX=0;exitY=0;exitDx=0;exitDy=0;entryX=1;entryY=1;entryDx=0;entryDy=0;" parent="1" source="iA0bfO9FTOAM0brtnCbu-37" target="iA0bfO9FTOAM0brtnCbu-3" edge="1">
          <mxGeometry width="50" height="50" relative="1" as="geometry">
            <mxPoint x="-510" y="910" as="sourcePoint" />
            <mxPoint x="-541" y="850" as="targetPoint" />
          </mxGeometry>
        </mxCell>
        <mxCell id="iA0bfO9FTOAM0brtnCbu-44" value="Cámara" style="swimlane;fontStyle=1;align=center;verticalAlign=top;childLayout=stackLayout;horizontal=1;startSize=26;horizontalStack=0;resizeParent=1;resizeParentMax=0;resizeLast=0;collapsible=1;marginBottom=0;whiteSpace=wrap;html=1;" parent="1" vertex="1">
          <mxGeometry x="-330" y="570" width="250" height="280" as="geometry">
            <mxRectangle x="1490" y="974" width="80" height="30" as="alternateBounds" />
          </mxGeometry>
        </mxCell>
        <mxCell id="iA0bfO9FTOAM0brtnCbu-45" value="ModeloCámara: string&lt;br&gt;DirecciónIP: int&lt;br&gt;Coordenadas: string&lt;br&gt;Descripción: string&lt;br&gt;IDCámara: int" style="text;strokeColor=none;fillColor=none;align=left;verticalAlign=top;spacingLeft=4;spacingRight=4;overflow=hidden;rotatable=0;points=[[0,0.5],[1,0.5]];portConstraint=eastwest;whiteSpace=wrap;html=1;" parent="iA0bfO9FTOAM0brtnCbu-44" vertex="1">
          <mxGeometry y="26" width="250" height="84" as="geometry" />
        </mxCell>
        <mxCell id="iA0bfO9FTOAM0brtnCbu-46" value="" style="line;strokeWidth=1;fillColor=none;align=left;verticalAlign=middle;spacingTop=-1;spacingLeft=3;spacingRight=3;rotatable=0;labelPosition=right;points=[];portConstraint=eastwest;strokeColor=inherit;" parent="iA0bfO9FTOAM0brtnCbu-44" vertex="1">
          <mxGeometry y="110" width="250" height="10" as="geometry" />
        </mxCell>
        <mxCell id="iA0bfO9FTOAM0brtnCbu-47" value="getModeloCámara():string&lt;br&gt;setModeloCámara(ModeloCámara:string)&lt;br&gt;getDirecciónIP():int&lt;br&gt;setDirecciónIP(DirecciónIP:int)&lt;br&gt;getCoordenadas():string&lt;br&gt;setCoordenadas(Coordenadas:string)&lt;br&gt;getDescripción():string&lt;br&gt;setDescripción(Descripción:string)&lt;br&gt;getIDCámara():string&lt;br&gt;setIDCámara(IDCámara:string)" style="text;strokeColor=none;fillColor=none;align=left;verticalAlign=top;spacingLeft=4;spacingRight=4;overflow=hidden;rotatable=0;points=[[0,0.5],[1,0.5]];portConstraint=eastwest;whiteSpace=wrap;html=1;" parent="iA0bfO9FTOAM0brtnCbu-44" vertex="1">
          <mxGeometry y="120" width="250" height="160" as="geometry" />
        </mxCell>
        <mxCell id="iA0bfO9FTOAM0brtnCbu-52" value="Registro" style="swimlane;fontStyle=1;align=center;verticalAlign=top;childLayout=stackLayout;horizontal=1;startSize=26;horizontalStack=0;resizeParent=1;resizeParentMax=0;resizeLast=0;collapsible=1;marginBottom=0;whiteSpace=wrap;html=1;" parent="1" vertex="1">
          <mxGeometry x="140" y="570" width="180" height="290" as="geometry" />
        </mxCell>
        <mxCell id="iA0bfO9FTOAM0brtnCbu-53" value="Fecha:date&lt;br&gt;Hora: time&lt;br&gt;Velocidad: float&lt;br&gt;Patente:string&lt;br&gt;IDCámara: int" style="text;strokeColor=none;fillColor=none;align=left;verticalAlign=top;spacingLeft=4;spacingRight=4;overflow=hidden;rotatable=0;points=[[0,0.5],[1,0.5]];portConstraint=eastwest;whiteSpace=wrap;html=1;" parent="iA0bfO9FTOAM0brtnCbu-52" vertex="1">
          <mxGeometry y="26" width="180" height="84" as="geometry" />
        </mxCell>
        <mxCell id="iA0bfO9FTOAM0brtnCbu-54" value="" style="line;strokeWidth=1;fillColor=none;align=left;verticalAlign=middle;spacingTop=-1;spacingLeft=3;spacingRight=3;rotatable=0;labelPosition=right;points=[];portConstraint=eastwest;strokeColor=inherit;" parent="iA0bfO9FTOAM0brtnCbu-52" vertex="1">
          <mxGeometry y="110" width="180" height="8" as="geometry" />
        </mxCell>
        <mxCell id="iA0bfO9FTOAM0brtnCbu-55" value="getFecha():date&lt;br&gt;setFecha(Fecha:date)&lt;br&gt;getHora():time&lt;br&gt;setHora(Hora:time)&lt;br&gt;getVelocidad():float&lt;br&gt;setVelocidad(Velocidad:float)&lt;br&gt;getPatente():string&lt;br&gt;setPatente(Patente:string)&lt;br&gt;datoCámara()&lt;br&gt;getIDCámara():string&lt;br&gt;setIDCámara(IDCámara:string)" style="text;strokeColor=none;fillColor=none;align=left;verticalAlign=top;spacingLeft=4;spacingRight=4;overflow=hidden;rotatable=0;points=[[0,0.5],[1,0.5]];portConstraint=eastwest;whiteSpace=wrap;html=1;" parent="iA0bfO9FTOAM0brtnCbu-52" vertex="1">
          <mxGeometry y="118" width="180" height="172" as="geometry" />
        </mxCell>
        <mxCell id="iA0bfO9FTOAM0brtnCbu-56" value="" style="endArrow=none;html=1;rounded=0;exitX=1;exitY=0.5;exitDx=0;exitDy=0;entryX=0;entryY=0.5;entryDx=0;entryDy=0;" parent="1" source="iA0bfO9FTOAM0brtnCbu-45" target="iA0bfO9FTOAM0brtnCbu-53" edge="1">
          <mxGeometry width="50" height="50" relative="1" as="geometry">
            <mxPoint x="60.6400000000001" y="640.3799999999999" as="sourcePoint" />
            <mxPoint x="140" y="640" as="targetPoint" />
          </mxGeometry>
        </mxCell>
        <mxCell id="iA0bfO9FTOAM0brtnCbu-58" value="1" style="text;html=1;strokeColor=none;fillColor=none;align=center;verticalAlign=middle;whiteSpace=wrap;rounded=0;" parent="1" vertex="1">
          <mxGeometry x="-100" y="610" width="60" height="30" as="geometry" />
        </mxCell>
        <mxCell id="iA0bfO9FTOAM0brtnCbu-59" value="0..N" style="text;html=1;strokeColor=none;fillColor=none;align=center;verticalAlign=middle;whiteSpace=wrap;rounded=0;" parent="1" vertex="1">
          <mxGeometry x="95" y="610" width="60" height="30" as="geometry" />
        </mxCell>
        <mxCell id="iA0bfO9FTOAM0brtnCbu-64" value="Tiene" style="text;html=1;align=center;verticalAlign=middle;resizable=0;points=[];autosize=1;strokeColor=none;fillColor=none;" parent="1" vertex="1">
          <mxGeometry x="5" y="610" width="50" height="30" as="geometry" />
        </mxCell>
        <mxCell id="iA0bfO9FTOAM0brtnCbu-65" value="&lt;font style=&quot;font-size: 36px;&quot;&gt;Diagrama E/R&lt;/font&gt;" style="text;html=1;strokeColor=none;fillColor=none;align=center;verticalAlign=middle;whiteSpace=wrap;rounded=0;fontSize=12;fontFamily=Helvetica;fontColor=default;" parent="1" vertex="1">
          <mxGeometry x="-703" y="459" width="252" height="30" as="geometry" />
        </mxCell>
        <mxCell id="iA0bfO9FTOAM0brtnCbu-67" value="&lt;font style=&quot;font-size: 36px;&quot;&gt;Diagrama Clase&lt;/font&gt;" style="text;html=1;strokeColor=none;fillColor=none;align=center;verticalAlign=middle;whiteSpace=wrap;rounded=0;fontSize=12;fontFamily=Helvetica;fontColor=default;" parent="1" vertex="1">
          <mxGeometry x="-145" y="470" width="310" height="30" as="geometry" />
        </mxCell>
        <mxCell id="iA0bfO9FTOAM0brtnCbu-68" value="&lt;font style=&quot;font-size: 36px;&quot;&gt;Diagrama Secuencia de Diseño&lt;/font&gt;" style="text;html=1;strokeColor=none;fillColor=none;align=center;verticalAlign=middle;whiteSpace=wrap;rounded=0;fontSize=12;fontFamily=Helvetica;fontColor=default;" parent="1" vertex="1">
          <mxGeometry x="-150" y="-580" width="540" height="30" as="geometry" />
        </mxCell>
        <mxCell id="mGtWwvDgIcSNrl-Gn1ym-2" value="Coordenadas&lt;br&gt;" style="ellipse;shape=doubleEllipse;margin=3;whiteSpace=wrap;html=1;align=center;" vertex="1" parent="1">
          <mxGeometry x="-662" y="540" width="100" height="40" as="geometry" />
        </mxCell>
        <mxCell id="mGtWwvDgIcSNrl-Gn1ym-3" value="X" style="ellipse;whiteSpace=wrap;html=1;" vertex="1" parent="1">
          <mxGeometry x="-670" y="510" width="30" height="20" as="geometry" />
        </mxCell>
        <mxCell id="mGtWwvDgIcSNrl-Gn1ym-5" value="Y" style="ellipse;whiteSpace=wrap;html=1;" vertex="1" parent="1">
          <mxGeometry x="-607" y="510" width="30" height="20" as="geometry" />
        </mxCell>
        <mxCell id="mGtWwvDgIcSNrl-Gn1ym-6" value="" style="endArrow=none;html=1;rounded=0;entryX=0.5;entryY=1;entryDx=0;entryDy=0;exitX=0;exitY=0;exitDx=0;exitDy=0;" edge="1" parent="1" source="mGtWwvDgIcSNrl-Gn1ym-2" target="mGtWwvDgIcSNrl-Gn1ym-3">
          <mxGeometry width="50" height="50" relative="1" as="geometry">
            <mxPoint x="-630" y="690" as="sourcePoint" />
            <mxPoint x="-580" y="640" as="targetPoint" />
          </mxGeometry>
        </mxCell>
        <mxCell id="mGtWwvDgIcSNrl-Gn1ym-7" value="" style="endArrow=none;html=1;rounded=0;entryX=0;entryY=1;entryDx=0;entryDy=0;exitX=0.5;exitY=0;exitDx=0;exitDy=0;" edge="1" parent="1" source="mGtWwvDgIcSNrl-Gn1ym-2" target="mGtWwvDgIcSNrl-Gn1ym-5">
          <mxGeometry width="50" height="50" relative="1" as="geometry">
            <mxPoint x="-630" y="690" as="sourcePoint" />
            <mxPoint x="-580" y="640" as="targetPoint" />
          </mxGeometry>
        </mxCell>
        <mxCell id="mGtWwvDgIcSNrl-Gn1ym-16" value="Enviar(&quot;avisos@ciudad&quot;, Datos)" style="html=1;verticalAlign=bottom;endArrow=block;curved=0;rounded=0;entryX=0;entryY=0;entryDx=0;entryDy=5;" edge="1" parent="1">
          <mxGeometry relative="1" as="geometry">
            <mxPoint x="-406" y="-120" as="sourcePoint" />
            <mxPoint x="827" y="-120" as="targetPoint" />
          </mxGeometry>
        </mxCell>
        <mxCell id="mGtWwvDgIcSNrl-Gn1ym-18" value="&amp;lt;&amp;lt;return:null&amp;gt;&amp;gt;" style="html=1;verticalAlign=bottom;endArrow=open;dashed=1;endSize=8;curved=0;rounded=0;exitX=0;exitY=1;exitDx=0;exitDy=-5;" edge="1" parent="1">
          <mxGeometry relative="1" as="geometry">
            <mxPoint x="-406" y="-80" as="targetPoint" />
            <mxPoint x="827" y="-80" as="sourcePoint" />
          </mxGeometry>
        </mxCell>
        <mxCell id="mGtWwvDgIcSNrl-Gn1ym-19" value="Enviar(&quot;alertas@ciudad&quot;, Datos)" style="html=1;verticalAlign=bottom;endArrow=block;curved=0;rounded=0;entryX=0;entryY=0;entryDx=0;entryDy=5;" edge="1" parent="1">
          <mxGeometry relative="1" as="geometry">
            <mxPoint x="-407" y="170" as="sourcePoint" />
            <mxPoint x="825" y="170" as="targetPoint" />
          </mxGeometry>
        </mxCell>
        <mxCell id="mGtWwvDgIcSNrl-Gn1ym-25" value="&amp;lt;&amp;lt;return:null&amp;gt;&amp;gt;" style="html=1;verticalAlign=bottom;endArrow=open;dashed=1;endSize=8;curved=0;rounded=0;exitX=0;exitY=1;exitDx=0;exitDy=-5;" edge="1" parent="1">
          <mxGeometry relative="1" as="geometry">
            <mxPoint x="-407" y="200" as="targetPoint" />
            <mxPoint x="825" y="200" as="sourcePoint" />
          </mxGeometry>
        </mxCell>
        <mxCell id="mGtWwvDgIcSNrl-Gn1ym-26" value="R:Registro" style="shape=umlLifeline;perimeter=lifelinePerimeter;whiteSpace=wrap;html=1;container=1;dropTarget=0;collapsible=0;recursiveResize=0;outlineConnect=0;portConstraint=eastwest;newEdgeStyle={&quot;curved&quot;:0,&quot;rounded&quot;:0};movable=1;resizable=1;rotatable=1;deletable=1;editable=1;locked=0;connectable=1;" vertex="1" parent="1">
          <mxGeometry x="-95" y="-480" width="100" height="870" as="geometry" />
        </mxCell>
        <mxCell id="mGtWwvDgIcSNrl-Gn1ym-27" value="Create(Fecha, Hora, IDcámara, Patente, Velocidad)" style="html=1;verticalAlign=bottom;endArrow=block;curved=0;rounded=0;entryX=0.013;entryY=0.034;entryDx=0;entryDy=0;entryPerimeter=0;" edge="1" parent="1">
          <mxGeometry x="-0.0047" y="5" relative="1" as="geometry">
            <mxPoint x="-407.3" y="-457.94" as="sourcePoint" />
            <mxPoint x="1" as="offset" />
            <mxPoint x="-90.99999999999982" y="-460.00000000000017" as="targetPoint" />
          </mxGeometry>
        </mxCell>
        <mxCell id="mGtWwvDgIcSNrl-Gn1ym-29" value="&amp;lt;&amp;lt;multiobjeto&amp;gt;&amp;gt;&lt;br&gt;Registro:ListaRegristo" style="shape=umlLifeline;perimeter=lifelinePerimeter;whiteSpace=wrap;html=1;container=1;dropTarget=0;collapsible=0;recursiveResize=0;outlineConnect=0;portConstraint=eastwest;newEdgeStyle={&quot;curved&quot;:0,&quot;rounded&quot;:0};movable=1;resizable=1;rotatable=1;deletable=1;editable=1;locked=0;connectable=1;" vertex="1" parent="1">
          <mxGeometry x="313" y="-485" width="100" height="865" as="geometry" />
        </mxCell>
        <mxCell id="mGtWwvDgIcSNrl-Gn1ym-35" value="" style="html=1;points=[[0,0,0,0,5],[0,1,0,0,-5],[1,0,0,0,5],[1,1,0,0,-5]];perimeter=orthogonalPerimeter;outlineConnect=0;targetShapes=umlLifeline;portConstraint=eastwest;newEdgeStyle={&quot;curved&quot;:0,&quot;rounded&quot;:0};" vertex="1" parent="mGtWwvDgIcSNrl-Gn1ym-29">
          <mxGeometry x="45" y="120" width="10" height="30" as="geometry" />
        </mxCell>
        <mxCell id="mGtWwvDgIcSNrl-Gn1ym-30" value="RegistroActual:registro" style="shape=umlLifeline;perimeter=lifelinePerimeter;whiteSpace=wrap;html=1;container=1;dropTarget=0;collapsible=0;recursiveResize=0;outlineConnect=0;portConstraint=eastwest;newEdgeStyle={&quot;curved&quot;:0,&quot;rounded&quot;:0};movable=1;resizable=1;rotatable=1;deletable=1;editable=1;locked=0;connectable=1;" vertex="1" parent="1">
          <mxGeometry x="155" y="-485" width="100" height="865" as="geometry" />
        </mxCell>
        <mxCell id="mGtWwvDgIcSNrl-Gn1ym-32" value="" style="html=1;points=[[0,0,0,0,5],[0,1,0,0,-5],[1,0,0,0,5],[1,1,0,0,-5]];perimeter=orthogonalPerimeter;outlineConnect=0;targetShapes=umlLifeline;portConstraint=eastwest;newEdgeStyle={&quot;curved&quot;:0,&quot;rounded&quot;:0};" vertex="1" parent="mGtWwvDgIcSNrl-Gn1ym-30">
          <mxGeometry x="45" y="75" width="10" height="25" as="geometry" />
        </mxCell>
        <mxCell id="mGtWwvDgIcSNrl-Gn1ym-31" value="CrearRegistro(R:Registro)" style="html=1;verticalAlign=bottom;endArrow=block;curved=0;rounded=0;entryX=0;entryY=0;entryDx=0;entryDy=5;entryPerimeter=0;" edge="1" parent="1" target="mGtWwvDgIcSNrl-Gn1ym-32">
          <mxGeometry x="-0.0047" y="5" relative="1" as="geometry">
            <mxPoint x="-407" y="-410" as="sourcePoint" />
            <mxPoint x="1" as="offset" />
            <mxPoint x="204.79999999999956" y="-410.00000000000006" as="targetPoint" />
          </mxGeometry>
        </mxCell>
        <mxCell id="mGtWwvDgIcSNrl-Gn1ym-37" value="&amp;lt;&amp;lt;return:null&amp;gt;&amp;gt;" style="html=1;verticalAlign=bottom;endArrow=open;dashed=1;endSize=8;curved=0;rounded=0;" edge="1" parent="1">
          <mxGeometry x="0.0007" relative="1" as="geometry">
            <mxPoint x="-407" y="-390" as="targetPoint" />
            <mxPoint x="200" y="-390" as="sourcePoint" />
            <mxPoint as="offset" />
          </mxGeometry>
        </mxCell>
      </root>
    </mxGraphModel>
  </diagram>
</mxfile>
